HIERARCHY
ROOT Pelvis
{
	OFFSET 0.000000 0.941512 0.000000
	CHANNELS 6 Xposition Yposition Zposition Zrotation Yrotation Xrotation 
	JOINT Pelvis_L_Hip
	{
		OFFSET 0.000000 0.000000 0.000000
		CHANNELS 3 Zrotation Yrotation Xrotation
		JOINT L_Hip
		{
			OFFSET 0.062321 -0.080322 -0.016990
			CHANNELS 3 Zrotation Yrotation Xrotation
			JOINT L_Knee
			{
				OFFSET 0.093051 -0.381305 -0.029784
				CHANNELS 3 Zrotation Yrotation Xrotation
				JOINT L_Ankle
				{
					OFFSET -0.010371 -0.431000 -0.033614
					CHANNELS 3 Zrotation Yrotation Xrotation
					End Site #name: L_Foot
					{
						OFFSET 0.069299 -0.038670 0.119418
					}
				}
			}
		}
	}
	JOINT Pelvis_R_Hip
	{
		OFFSET 0.000000 0.000000 0.000000
		CHANNELS 3 Zrotation Yrotation Xrotation
		JOINT R_Hip
		{
			OFFSET -0.055334 -0.094904 -0.002373
			CHANNELS 3 Zrotation Yrotation Xrotation
			JOINT R_Knee
			{
				OFFSET -0.064207 -0.384370 -0.019592
				CHANNELS 3 Zrotation Yrotation Xrotation
				JOINT R_Ankle
				{
					OFFSET 0.025418 -0.419734 -0.065953
					CHANNELS 3 Zrotation Yrotation Xrotation
					End Site #name: R_Foot
					{
						OFFSET -0.057233 -0.039888 0.132134
					}
				}
			}
		}
	}
	JOINT Pelvis_Spine1
	{
		OFFSET 0.000000 0.000000 0.000000
		CHANNELS 3 Zrotation Yrotation Xrotation
		JOINT Spine1
		{
			OFFSET -0.005562 0.124093 -0.043360
			CHANNELS 3 Zrotation Yrotation Xrotation
			JOINT Spine2
			{
				OFFSET 0.012244 0.139499 0.029894
				CHANNELS 3 Zrotation Yrotation Xrotation
				JOINT Spine3
				{
					OFFSET -0.002556 0.056561 0.009225
					CHANNELS 3 Zrotation Yrotation Xrotation
					JOINT Spine3_Neck
					{
						OFFSET 0.000000 0.000000 0.000000
						CHANNELS 3 Zrotation Yrotation Xrotation
						JOINT Neck
						{
							OFFSET -0.005205 0.217920 -0.024551
							CHANNELS 3 Zrotation Yrotation Xrotation
							End Site #name: Head
							{
								OFFSET 0.002365 0.091850 0.046637
							}
						}
					}
					JOINT Spine3_L_Collar
					{
						OFFSET 0.000000 0.000000 0.000000
						CHANNELS 3 Zrotation Yrotation Xrotation
						JOINT L_Collar
						{
							OFFSET 0.072225 0.116603 -0.009480
							CHANNELS 3 Zrotation Yrotation Xrotation
							JOINT L_Shoulder
							{
								OFFSET 0.115937 -0.058643 -0.021018
								CHANNELS 3 Zrotation Yrotation Xrotation
								JOINT L_Elbow
								{
									OFFSET 0.021994 -0.254722 -0.024492
									CHANNELS 3 Zrotation Yrotation Xrotation
									End Site #name: L_Wrist
									{
										OFFSET 0.048810 -0.240214 0.103329
									}
								}
							}
						}
					}
					JOINT Spine3_R_Collar
					{
						OFFSET 0.000000 0.000000 0.000000
						CHANNELS 3 Zrotation Yrotation Xrotation
						JOINT R_Collar
						{
							OFFSET -0.073372 0.120704 -0.024611
							CHANNELS 3 Zrotation Yrotation Xrotation
							JOINT R_Shoulder
							{
								OFFSET -0.108089 -0.054969 -0.020504
								CHANNELS 3 Zrotation Yrotation Xrotation
								JOINT R_Elbow
								{
									OFFSET -0.033684 -0.260739 0.009889
									CHANNELS 3 Zrotation Yrotation Xrotation
									End Site #name: R_Wrist
									{
										OFFSET -0.067980 -0.232763 0.118463
									}
								}
							}
						}
					}
				}
			}
		}
	}
}
MOTION
Frames: 8
Frame Time: 0.041667
0.000000 0.919844 0.000000 -3.234646 -3.572564 10.884075 0.000000 0.000000 0.000000 10.908687 -7.422826 -50.346740 -4.123403 1.042593 32.024961 2.110741 6.564348 0.136789 0.000000 0.000000 0.000000 0.077243 2.276905 -13.312122 2.354877 0.629125 20.456410 -5.691027 -3.603234 -11.159772 0.000000 0.000000 0.000000 8.158451 -3.329795 8.760751 -5.048811 0.293702 -6.085330 3.015496 2.562281 21.303357 0.000000 0.000000 0.000000 -10.416593 6.311623 5.747556 0.000000 0.000000 0.000000 42.072582 4.959459 14.142214 -22.226946 1.132634 -6.015801 4.579753 -13.732797 -66.881349 0.000000 0.000000 0.000000 -48.478250 7.605740 2.553674 28.860280 2.312269 -5.492215 2.728361 6.963292 -15.936378 
0.012223 0.907002 0.055014 -3.682120 -4.899880 11.732751 0.000000 0.000000 0.000000 11.429302 -7.310967 -53.438969 -4.268536 1.178474 32.207948 0.416987 4.017678 1.686848 0.000000 0.000000 0.000000 -0.675267 1.774619 -10.499358 1.810814 0.875938 20.433110 -6.183371 -1.991617 -13.013019 0.000000 0.000000 0.000000 8.345985 -3.165101 7.460048 -5.221814 0.352254 -5.678092 2.875227 2.916471 21.277677 0.000000 0.000000 0.000000 -11.214535 6.779426 5.272760 0.000000 0.000000 0.000000 42.657214 6.002840 15.170231 -22.348768 1.429535 -4.859991 4.742948 -14.531437 -69.296087 0.000000 0.000000 0.000000 -48.969516 8.050693 2.360543 28.031364 1.661588 -4.047625 4.216983 8.405973 -16.873824 
0.027922 0.894716 0.115154 -4.006737 -6.767936 13.075369 0.000000 0.000000 0.000000 11.398867 -7.163908 -55.969125 -4.845560 1.600866 34.030700 -1.049855 1.279579 2.665644 0.000000 0.000000 0.000000 -2.628907 1.391668 -8.106220 1.601993 1.024636 20.402304 -5.825553 0.623894 -13.168221 0.000000 0.000000 0.000000 7.958680 -2.846382 6.233014 -5.429560 0.356024 -5.998272 2.822680 3.055343 21.378526 0.000000 0.000000 0.000000 -11.298517 6.843680 4.923619 0.000000 0.000000 0.000000 42.836599 7.260131 16.074538 -22.784317 1.748061 -3.675896 4.592619 -15.587635 -70.971080 0.000000 0.000000 0.000000 -49.312475 8.128960 2.840770 27.571715 1.352315 -3.530464 5.901962 9.822759 -17.288961 
0.047535 0.884161 0.180691 -4.464385 -8.655092 14.853790 0.000000 0.000000 0.000000 10.473495 -7.210510 -57.105642 -6.144894 2.523354 37.540452 -1.830342 0.514867 3.619625 0.000000 0.000000 0.000000 -6.066898 1.475122 -8.217521 3.775817 0.599438 24.189449 -4.137001 3.023652 -10.454863 0.000000 0.000000 0.000000 7.456930 -2.538090 5.126825 -5.673819 0.336840 -6.665370 2.481762 2.658287 21.560641 0.000000 0.000000 0.000000 -10.463896 6.328669 4.320716 0.000000 0.000000 0.000000 42.408502 7.943672 15.981647 -23.789607 2.157630 -2.388732 3.835934 -16.777459 -70.675243 0.000000 0.000000 0.000000 -48.947920 7.650422 4.140412 28.296340 1.164585 -3.347537 7.164675 11.372301 -18.618129 
0.067600 0.874024 0.248775 -5.622728 -10.849696 15.888605 0.000000 0.000000 0.000000 9.720338 -7.062924 -57.911457 -7.398885 4.167380 46.182904 2.141540 2.915694 -2.286129 0.000000 0.000000 0.000000 -10.297975 2.023951 -12.859577 10.687612 -1.709766 35.355620 -1.960619 -2.461528 -2.666739 0.000000 0.000000 0.000000 6.561559 -2.385006 6.049879 -5.960832 0.287070 -7.816086 2.334323 2.089109 21.726252 0.000000 0.000000 0.000000 -8.811591 5.108450 1.857026 0.000000 0.000000 0.000000 41.532038 7.757732 14.791748 -24.575334 2.329933 -1.884982 2.543920 -17.619528 -68.009033 0.000000 0.000000 0.000000 -48.506957 7.290361 5.357875 29.889770 0.618262 -2.290593 8.955372 13.910440 -20.937717 
0.086930 0.861686 0.318573 -5.929844 -12.767942 16.206100 0.000000 0.000000 0.000000 8.292701 -7.178524 -56.953606 -8.952891 6.262306 52.759658 6.428144 5.174209 -9.516535 0.000000 0.000000 0.000000 -14.857607 2.298449 -17.156805 24.156621 -7.890356 36.344876 -9.343892 -28.126097 2.788141 0.000000 0.000000 0.000000 4.991127 -2.045780 7.470207 -6.960658 0.297027 -9.039958 2.174427 0.864768 21.555636 0.000000 0.000000 0.000000 -7.287425 4.000671 -0.601821 0.000000 0.000000 0.000000 40.649122 6.105731 12.138393 -23.447653 2.421853 -0.977485 1.422155 -18.622695 -66.565915 0.000000 0.000000 0.000000 -48.240646 6.927817 6.689641 30.685792 -0.685915 0.502820 13.497778 19.269114 -23.750086 
0.095162 0.869998 0.387918 -9.142306 -15.421167 13.924567 0.000000 0.000000 0.000000 9.161880 -5.653131 -48.285569 -10.079076 8.039143 53.772031 8.687950 6.268495 -13.946761 0.000000 0.000000 0.000000 -10.742549 2.515056 -17.126415 33.331484 -9.161092 26.102146 -16.170205 -41.826093 3.022486 0.000000 0.000000 0.000000 4.176771 -2.200813 13.263989 -7.609921 0.317594 -9.732693 3.174468 -0.038876 18.259380 0.000000 0.000000 0.000000 -6.134987 3.188309 -2.095918 0.000000 0.000000 0.000000 40.498227 4.136072 9.539361 -17.330811 2.895808 4.276123 -2.025785 -27.193988 -71.829012 0.000000 0.000000 0.000000 -47.955541 7.706029 6.678647 28.716080 -2.210535 4.537081 18.839389 25.569087 -26.194560 
0.117008 0.903714 0.465455 -10.010306 -15.482199 11.911465 0.000000 0.000000 0.000000 3.743194 -6.298184 -36.501972 -5.662321 4.731204 47.655617 8.265160 2.877402 -15.235564 0.000000 0.000000 0.000000 -7.392851 2.371145 -15.031316 34.525205 -6.899494 14.405562 -22.439611 -51.547132 6.321226 0.000000 0.000000 0.000000 5.975312 -3.105754 16.410646 -8.777204 0.084081 -13.463247 3.626124 -1.441860 18.565118 0.000000 0.000000 0.000000 -5.989770 3.242434 -0.522587 0.000000 0.000000 0.000000 43.194198 3.486367 9.234825 -11.861173 2.755236 7.959585 -7.178958 -41.653790 -78.368855 0.000000 0.000000 0.000000 -48.490072 6.152087 9.059750 26.690765 -3.740627 8.708700 23.208023 30.639637 -27.628101 
